<mxfile host="app.diagrams.net" modified="2020-08-21T08:33:36.103Z" agent="5.0 (Macintosh; Intel Mac OS X 10_14_6) AppleWebKit/537.36 (KHTML, like Gecko) Chrome/84.0.4147.125 Safari/537.36" etag="LUYgMRds7YPftkekhdBP" version="13.6.1" type="github">
  <diagram id="C5RBs43oDa-KdzZeNtuy" name="Page-1">
    <mxGraphModel dx="1426" dy="1940" grid="1" gridSize="10" guides="1" tooltips="1" connect="1" arrows="1" fold="1" page="1" pageScale="1" pageWidth="827" pageHeight="1169" math="0" shadow="0">
      <root>
        <mxCell id="WIyWlLk6GJQsqaUBKTNV-0" />
        <mxCell id="WIyWlLk6GJQsqaUBKTNV-1" parent="WIyWlLk6GJQsqaUBKTNV-0" />
        <mxCell id="k-6Em8FCaYwR3AkW3c9V-0" value="«interface»&lt;br&gt;&lt;span style=&quot;font-style: italic&quot;&gt;&lt;b&gt;IStringSearch&lt;/b&gt;&lt;/span&gt;&lt;b style=&quot;font-style: italic&quot;&gt;Strategy&lt;/b&gt;&lt;span style=&quot;font-style: italic&quot;&gt;&lt;b&gt;.Factory&lt;/b&gt;&lt;/span&gt;" style="html=1;" parent="WIyWlLk6GJQsqaUBKTNV-1" vertex="1">
          <mxGeometry x="988" y="-80" width="200" height="50" as="geometry" />
        </mxCell>
        <object label="«interface»&lt;br&gt;&lt;b style=&quot;font-style: italic&quot;&gt;com.itaycohen.algorithm.IStringSearchAlgoStrategy&lt;/b&gt;" id="k-6Em8FCaYwR3AkW3c9V-1">
          <mxCell style="html=1;container=0;" parent="WIyWlLk6GJQsqaUBKTNV-1" vertex="1">
            <mxGeometry x="590" y="120" width="170" height="50" as="geometry" />
          </mxCell>
        </object>
        <mxCell id="k-6Em8FCaYwR3AkW3c9V-3" value="" style="endArrow=block;dashed=1;endFill=0;endSize=12;html=1;exitX=0.5;exitY=0;exitDx=0;exitDy=0;entryX=0.5;entryY=1;entryDx=0;entryDy=0;" parent="WIyWlLk6GJQsqaUBKTNV-1" source="zkfFHV4jXpPFQw0GAbJ--0" target="k-6Em8FCaYwR3AkW3c9V-0" edge="1">
          <mxGeometry width="160" relative="1" as="geometry">
            <mxPoint x="1008" y="40" as="sourcePoint" />
            <mxPoint x="1168" y="40" as="targetPoint" />
          </mxGeometry>
        </mxCell>
        <mxCell id="k-6Em8FCaYwR3AkW3c9V-11" value="creates" style="endArrow=block;endFill=1;html=1;edgeStyle=orthogonalEdgeStyle;align=left;verticalAlign=top;exitX=0;exitY=0.5;exitDx=0;exitDy=0;entryX=1;entryY=0.5;entryDx=0;entryDy=0;" parent="WIyWlLk6GJQsqaUBKTNV-1" source="k-6Em8FCaYwR3AkW3c9V-0" target="k-6Em8FCaYwR3AkW3c9V-1" edge="1">
          <mxGeometry x="-0.0769" y="5" relative="1" as="geometry">
            <mxPoint x="400" y="140" as="sourcePoint" />
            <mxPoint x="560" y="150" as="targetPoint" />
            <mxPoint as="offset" />
          </mxGeometry>
        </mxCell>
        <mxCell id="k-6Em8FCaYwR3AkW3c9V-29" value="" style="endArrow=block;dashed=1;endFill=0;endSize=12;html=1;exitX=0.462;exitY=-0.004;exitDx=0;exitDy=0;edgeStyle=orthogonalEdgeStyle;entryX=0.5;entryY=1;entryDx=0;entryDy=0;exitPerimeter=0;" parent="WIyWlLk6GJQsqaUBKTNV-1" source="zkfFHV4jXpPFQw0GAbJ--17" target="k-6Em8FCaYwR3AkW3c9V-1" edge="1">
          <mxGeometry width="160" relative="1" as="geometry">
            <mxPoint x="1079" y="248" as="sourcePoint" />
            <mxPoint x="610" y="220" as="targetPoint" />
            <Array as="points">
              <mxPoint x="660" y="250" />
              <mxPoint x="675" y="250" />
            </Array>
          </mxGeometry>
        </mxCell>
        <object label="«interface»&lt;br&gt;&lt;b&gt;&lt;i&gt;INaiveInternalStrategy&lt;/i&gt;&lt;/b&gt;" id="k-6Em8FCaYwR3AkW3c9V-30">
          <mxCell style="html=1;container=0;" parent="WIyWlLk6GJQsqaUBKTNV-1" vertex="1">
            <mxGeometry x="910" y="290" width="200" height="100" as="geometry" />
          </mxCell>
        </object>
        <object label="«interface»&lt;br&gt;&lt;b&gt;&lt;i&gt;IKmpInternalStrategy&lt;/i&gt;&lt;/b&gt;" id="k-6Em8FCaYwR3AkW3c9V-32">
          <mxCell style="html=1;container=0;" parent="WIyWlLk6GJQsqaUBKTNV-1" vertex="1">
            <mxGeometry x="980" y="370" width="200" height="100" as="geometry" />
          </mxCell>
        </object>
        <object label="«interface»&lt;br&gt;&lt;b&gt;&lt;i&gt;INaiveInternalDirectionalStrategy&lt;/i&gt;&lt;/b&gt;" id="k-6Em8FCaYwR3AkW3c9V-34">
          <mxCell style="html=1;container=0;" parent="WIyWlLk6GJQsqaUBKTNV-1" vertex="1">
            <mxGeometry x="908" y="670" width="210" height="110" as="geometry" />
          </mxCell>
        </object>
        <object label="«interface»&lt;br&gt;&lt;b&gt;&lt;i&gt;IKmpInternalDirectionalStrategy&lt;/i&gt;&lt;/b&gt;" id="k-6Em8FCaYwR3AkW3c9V-35">
          <mxCell style="html=1;container=0;" parent="WIyWlLk6GJQsqaUBKTNV-1" vertex="1">
            <mxGeometry x="1048" y="750" width="230" height="105" as="geometry" />
          </mxCell>
        </object>
        <mxCell id="k-6Em8FCaYwR3AkW3c9V-36" value="" style="endArrow=block;dashed=1;endFill=0;endSize=12;html=1;edgeStyle=orthogonalEdgeStyle;entryX=0.25;entryY=1;entryDx=0;entryDy=0;exitX=0.25;exitY=0;exitDx=0;exitDy=0;" parent="WIyWlLk6GJQsqaUBKTNV-1" source="k-6Em8FCaYwR3AkW3c9V-34" target="k-6Em8FCaYwR3AkW3c9V-30" edge="1">
          <mxGeometry width="160" relative="1" as="geometry">
            <mxPoint x="985" y="510" as="sourcePoint" />
            <mxPoint x="1047.5" y="340" as="targetPoint" />
            <Array as="points">
              <mxPoint x="960" y="610" />
            </Array>
          </mxGeometry>
        </mxCell>
        <mxCell id="k-6Em8FCaYwR3AkW3c9V-37" value="" style="endArrow=block;dashed=1;endFill=0;endSize=12;html=1;edgeStyle=orthogonalEdgeStyle;entryX=0.5;entryY=1;entryDx=0;entryDy=0;exitX=0.5;exitY=0;exitDx=0;exitDy=0;" parent="WIyWlLk6GJQsqaUBKTNV-1" source="k-6Em8FCaYwR3AkW3c9V-35" target="k-6Em8FCaYwR3AkW3c9V-32" edge="1">
          <mxGeometry width="160" relative="1" as="geometry">
            <mxPoint x="1280" y="420" as="sourcePoint" />
            <mxPoint x="1270" y="410" as="targetPoint" />
            <Array as="points">
              <mxPoint x="1165" y="750" />
              <mxPoint x="1165" y="640" />
              <mxPoint x="1080" y="640" />
            </Array>
          </mxGeometry>
        </mxCell>
        <mxCell id="k-6Em8FCaYwR3AkW3c9V-38" value="has a" style="edgeStyle=orthogonalEdgeStyle;rounded=0;orthogonalLoop=1;jettySize=auto;html=1;entryX=0;entryY=0.5;entryDx=0;entryDy=0;strokeColor=#000000;exitX=1.001;exitY=0.235;exitDx=0;exitDy=0;exitPerimeter=0;" parent="WIyWlLk6GJQsqaUBKTNV-1" source="zkfFHV4jXpPFQw0GAbJ--25" target="k-6Em8FCaYwR3AkW3c9V-30" edge="1">
          <mxGeometry relative="1" as="geometry" />
        </mxCell>
        <mxCell id="zkfFHV4jXpPFQw0GAbJ--17" value="NaiveStringSearchStrategy" style="swimlane;fontStyle=0;align=center;verticalAlign=top;childLayout=stackLayout;horizontal=1;startSize=26;horizontalStack=0;resizeParent=1;resizeLast=0;collapsible=1;marginBottom=0;rounded=0;shadow=0;strokeWidth=1;" parent="WIyWlLk6GJQsqaUBKTNV-1" vertex="1">
          <mxGeometry x="517" y="293" width="310" height="100" as="geometry">
            <mxRectangle x="550" y="140" width="160" height="26" as="alternateBounds" />
          </mxGeometry>
        </mxCell>
        <mxCell id="zkfFHV4jXpPFQw0GAbJ--23" value="" style="line;html=1;strokeWidth=1;align=left;verticalAlign=middle;spacingTop=-1;spacingLeft=3;spacingRight=3;rotatable=0;labelPosition=right;points=[];portConstraint=eastwest;" parent="zkfFHV4jXpPFQw0GAbJ--17" vertex="1">
          <mxGeometry y="26" width="310" height="8" as="geometry" />
        </mxCell>
        <mxCell id="zkfFHV4jXpPFQw0GAbJ--25" value="+ search(CharSequence pattern, CharSequence text) : List&lt;Integer&gt;&#xa;" style="text;align=left;verticalAlign=top;spacingLeft=4;spacingRight=4;overflow=hidden;rotatable=0;points=[[0,0.5],[1,0.5]];portConstraint=eastwest;whiteSpace=wrap;" parent="zkfFHV4jXpPFQw0GAbJ--17" vertex="1">
          <mxGeometry y="34" width="310" height="56" as="geometry" />
        </mxCell>
        <mxCell id="k-6Em8FCaYwR3AkW3c9V-42" value="" style="endArrow=block;dashed=1;endFill=0;endSize=12;html=1;exitX=0.5;exitY=0;exitDx=0;exitDy=0;edgeStyle=orthogonalEdgeStyle;entryX=0.5;entryY=1;entryDx=0;entryDy=0;" parent="WIyWlLk6GJQsqaUBKTNV-1" source="k-6Em8FCaYwR3AkW3c9V-39" target="k-6Em8FCaYwR3AkW3c9V-1" edge="1">
          <mxGeometry width="160" relative="1" as="geometry">
            <mxPoint x="682" y="303" as="sourcePoint" />
            <mxPoint x="730" y="190" as="targetPoint" />
            <Array as="points">
              <mxPoint x="675" y="370" />
            </Array>
          </mxGeometry>
        </mxCell>
        <mxCell id="k-6Em8FCaYwR3AkW3c9V-39" value="KmpStringSearchStrategy" style="swimlane;fontStyle=0;align=center;verticalAlign=top;childLayout=stackLayout;horizontal=1;startSize=26;horizontalStack=0;resizeParent=1;resizeLast=0;collapsible=1;marginBottom=0;rounded=0;shadow=0;strokeWidth=1;" parent="WIyWlLk6GJQsqaUBKTNV-1" vertex="1">
          <mxGeometry x="550" y="370" width="310" height="100" as="geometry">
            <mxRectangle x="550" y="140" width="160" height="26" as="alternateBounds" />
          </mxGeometry>
        </mxCell>
        <mxCell id="k-6Em8FCaYwR3AkW3c9V-40" value="" style="line;html=1;strokeWidth=1;align=left;verticalAlign=middle;spacingTop=-1;spacingLeft=3;spacingRight=3;rotatable=0;labelPosition=right;points=[];portConstraint=eastwest;" parent="k-6Em8FCaYwR3AkW3c9V-39" vertex="1">
          <mxGeometry y="26" width="310" height="8" as="geometry" />
        </mxCell>
        <mxCell id="k-6Em8FCaYwR3AkW3c9V-41" value="+ search(CharSequence pattern, CharSequence text) : List&lt;Integer&gt;&#xa;" style="text;align=left;verticalAlign=top;spacingLeft=4;spacingRight=4;overflow=hidden;rotatable=0;points=[[0,0.5],[1,0.5]];portConstraint=eastwest;whiteSpace=wrap;" parent="k-6Em8FCaYwR3AkW3c9V-39" vertex="1">
          <mxGeometry y="34" width="310" height="56" as="geometry" />
        </mxCell>
        <mxCell id="k-6Em8FCaYwR3AkW3c9V-45" value="has a" style="edgeStyle=orthogonalEdgeStyle;rounded=0;orthogonalLoop=1;jettySize=auto;html=1;exitX=1;exitY=0.5;exitDx=0;exitDy=0;entryX=0;entryY=0.62;entryDx=0;entryDy=0;entryPerimeter=0;strokeColor=#000000;" parent="WIyWlLk6GJQsqaUBKTNV-1" source="k-6Em8FCaYwR3AkW3c9V-41" target="k-6Em8FCaYwR3AkW3c9V-32" edge="1">
          <mxGeometry relative="1" as="geometry" />
        </mxCell>
        <mxCell id="k-6Em8FCaYwR3AkW3c9V-49" value="" style="endArrow=block;dashed=1;endFill=0;endSize=12;html=1;entryX=0.5;entryY=1;entryDx=0;entryDy=0;exitX=0.5;exitY=0;exitDx=0;exitDy=0;edgeStyle=orthogonalEdgeStyle;" parent="WIyWlLk6GJQsqaUBKTNV-1" source="k-6Em8FCaYwR3AkW3c9V-46" target="k-6Em8FCaYwR3AkW3c9V-35" edge="1">
          <mxGeometry width="160" relative="1" as="geometry">
            <mxPoint x="1173" y="760" as="sourcePoint" />
            <mxPoint x="1088" y="540" as="targetPoint" />
          </mxGeometry>
        </mxCell>
        <mxCell id="k-6Em8FCaYwR3AkW3c9V-53" value="" style="endArrow=block;dashed=1;endFill=0;endSize=12;html=1;entryX=0.5;entryY=1;entryDx=0;entryDy=0;exitX=0.5;exitY=0;exitDx=0;exitDy=0;edgeStyle=orthogonalEdgeStyle;" parent="WIyWlLk6GJQsqaUBKTNV-1" source="k-6Em8FCaYwR3AkW3c9V-50" target="k-6Em8FCaYwR3AkW3c9V-35" edge="1">
          <mxGeometry width="160" relative="1" as="geometry">
            <mxPoint x="1213" y="940" as="sourcePoint" />
            <mxPoint x="1173" y="865" as="targetPoint" />
            <Array as="points">
              <mxPoint x="1273" y="900" />
              <mxPoint x="1163" y="900" />
            </Array>
          </mxGeometry>
        </mxCell>
        <mxCell id="k-6Em8FCaYwR3AkW3c9V-60" value="" style="endArrow=block;dashed=1;endFill=0;endSize=12;html=1;entryX=0.5;entryY=1;entryDx=0;entryDy=0;exitX=0.5;exitY=0;exitDx=0;exitDy=0;edgeStyle=orthogonalEdgeStyle;" parent="WIyWlLk6GJQsqaUBKTNV-1" source="k-6Em8FCaYwR3AkW3c9V-57" target="k-6Em8FCaYwR3AkW3c9V-34" edge="1">
          <mxGeometry width="160" relative="1" as="geometry">
            <mxPoint x="858" y="996" as="sourcePoint" />
            <mxPoint x="748" y="840" as="targetPoint" />
            <Array as="points">
              <mxPoint x="853" y="930" />
              <mxPoint x="1013" y="930" />
            </Array>
          </mxGeometry>
        </mxCell>
        <mxCell id="k-6Em8FCaYwR3AkW3c9V-61" value="" style="endArrow=block;dashed=1;endFill=0;endSize=12;html=1;entryX=0.5;entryY=1;entryDx=0;entryDy=0;exitX=0.5;exitY=0;exitDx=0;exitDy=0;edgeStyle=orthogonalEdgeStyle;" parent="WIyWlLk6GJQsqaUBKTNV-1" source="k-6Em8FCaYwR3AkW3c9V-54" target="k-6Em8FCaYwR3AkW3c9V-34" edge="1">
          <mxGeometry width="160" relative="1" as="geometry">
            <mxPoint x="863" y="1021" as="sourcePoint" />
            <mxPoint x="1023" y="790" as="targetPoint" />
            <Array as="points">
              <mxPoint x="783" y="900" />
              <mxPoint x="1013" y="900" />
            </Array>
          </mxGeometry>
        </mxCell>
        <mxCell id="k-6Em8FCaYwR3AkW3c9V-68" value="has a" style="edgeStyle=orthogonalEdgeStyle;rounded=0;orthogonalLoop=1;jettySize=auto;html=1;entryX=0.999;entryY=0.365;entryDx=0;entryDy=0;entryPerimeter=0;strokeColor=#000000;" parent="WIyWlLk6GJQsqaUBKTNV-1" source="k-6Em8FCaYwR3AkW3c9V-62" target="k-6Em8FCaYwR3AkW3c9V-34" edge="1">
          <mxGeometry relative="1" as="geometry" />
        </mxCell>
        <mxCell id="k-6Em8FCaYwR3AkW3c9V-71" value="has a" style="edgeStyle=orthogonalEdgeStyle;rounded=0;orthogonalLoop=1;jettySize=auto;html=1;entryX=1;entryY=0.5;entryDx=0;entryDy=0;strokeColor=#000000;" parent="WIyWlLk6GJQsqaUBKTNV-1" source="k-6Em8FCaYwR3AkW3c9V-67" target="k-6Em8FCaYwR3AkW3c9V-35" edge="1">
          <mxGeometry relative="1" as="geometry" />
        </mxCell>
        <mxCell id="k-6Em8FCaYwR3AkW3c9V-72" value="" style="endArrow=block;dashed=1;endFill=0;endSize=12;html=1;entryX=0.25;entryY=1;entryDx=0;entryDy=0;exitX=0.5;exitY=0;exitDx=0;exitDy=0;edgeStyle=orthogonalEdgeStyle;" parent="WIyWlLk6GJQsqaUBKTNV-1" source="k-6Em8FCaYwR3AkW3c9V-62" target="k-6Em8FCaYwR3AkW3c9V-30" edge="1">
          <mxGeometry width="160" relative="1" as="geometry">
            <mxPoint x="1509.9599999999998" y="608" as="sourcePoint" />
            <mxPoint x="960" y="398" as="targetPoint" />
            <Array as="points">
              <mxPoint x="1503" y="600" />
              <mxPoint x="960" y="600" />
            </Array>
          </mxGeometry>
        </mxCell>
        <mxCell id="k-6Em8FCaYwR3AkW3c9V-73" value="" style="endArrow=block;dashed=1;endFill=0;endSize=12;html=1;exitX=0.5;exitY=0;exitDx=0;exitDy=0;entryX=0.5;entryY=1;entryDx=0;entryDy=0;edgeStyle=orthogonalEdgeStyle;" parent="WIyWlLk6GJQsqaUBKTNV-1" source="k-6Em8FCaYwR3AkW3c9V-65" target="k-6Em8FCaYwR3AkW3c9V-32" edge="1">
          <mxGeometry width="160" relative="1" as="geometry">
            <mxPoint x="1519.9600000000005" y="618" as="sourcePoint" />
            <mxPoint x="1080" y="480" as="targetPoint" />
            <Array as="points">
              <mxPoint x="1575" y="741" />
              <mxPoint x="1575" y="640" />
              <mxPoint x="1080" y="640" />
            </Array>
          </mxGeometry>
        </mxCell>
        <mxCell id="k-6Em8FCaYwR3AkW3c9V-46" value="AscendingKmpSearchStrategy" style="swimlane;fontStyle=0;align=center;verticalAlign=top;childLayout=stackLayout;horizontal=1;startSize=26;horizontalStack=0;resizeParent=1;resizeLast=0;collapsible=1;marginBottom=0;rounded=0;shadow=0;strokeWidth=1;" parent="WIyWlLk6GJQsqaUBKTNV-1" vertex="1">
          <mxGeometry x="1048" y="975" width="310" height="100" as="geometry">
            <mxRectangle x="550" y="140" width="160" height="26" as="alternateBounds" />
          </mxGeometry>
        </mxCell>
        <mxCell id="k-6Em8FCaYwR3AkW3c9V-47" value="" style="line;html=1;strokeWidth=1;align=left;verticalAlign=middle;spacingTop=-1;spacingLeft=3;spacingRight=3;rotatable=0;labelPosition=right;points=[];portConstraint=eastwest;" parent="k-6Em8FCaYwR3AkW3c9V-46" vertex="1">
          <mxGeometry y="26" width="310" height="8" as="geometry" />
        </mxCell>
        <mxCell id="k-6Em8FCaYwR3AkW3c9V-48" value="+ search(CharSequence pattern, CharSequence text) : List&lt;Integer&gt;&#xa;" style="text;align=left;verticalAlign=top;spacingLeft=4;spacingRight=4;overflow=hidden;rotatable=0;points=[[0,0.5],[1,0.5]];portConstraint=eastwest;whiteSpace=wrap;" parent="k-6Em8FCaYwR3AkW3c9V-46" vertex="1">
          <mxGeometry y="34" width="310" height="56" as="geometry" />
        </mxCell>
        <mxCell id="k-6Em8FCaYwR3AkW3c9V-50" value="DescendingKmpSearchStrategy" style="swimlane;fontStyle=0;align=center;verticalAlign=top;childLayout=stackLayout;horizontal=1;startSize=26;horizontalStack=0;resizeParent=1;resizeLast=0;collapsible=1;marginBottom=0;rounded=0;shadow=0;strokeWidth=1;" parent="WIyWlLk6GJQsqaUBKTNV-1" vertex="1">
          <mxGeometry x="1118" y="1056" width="310" height="100" as="geometry">
            <mxRectangle x="550" y="140" width="160" height="26" as="alternateBounds" />
          </mxGeometry>
        </mxCell>
        <mxCell id="k-6Em8FCaYwR3AkW3c9V-51" value="" style="line;html=1;strokeWidth=1;align=left;verticalAlign=middle;spacingTop=-1;spacingLeft=3;spacingRight=3;rotatable=0;labelPosition=right;points=[];portConstraint=eastwest;" parent="k-6Em8FCaYwR3AkW3c9V-50" vertex="1">
          <mxGeometry y="26" width="310" height="8" as="geometry" />
        </mxCell>
        <mxCell id="k-6Em8FCaYwR3AkW3c9V-52" value="+ search(CharSequence pattern, CharSequence text) : List&lt;Integer&gt;&#xa;" style="text;align=left;verticalAlign=top;spacingLeft=4;spacingRight=4;overflow=hidden;rotatable=0;points=[[0,0.5],[1,0.5]];portConstraint=eastwest;whiteSpace=wrap;" parent="k-6Em8FCaYwR3AkW3c9V-50" vertex="1">
          <mxGeometry y="34" width="310" height="56" as="geometry" />
        </mxCell>
        <mxCell id="k-6Em8FCaYwR3AkW3c9V-54" value="AscendingNaiveSearchStrategy" style="swimlane;fontStyle=0;align=center;verticalAlign=top;childLayout=stackLayout;horizontal=1;startSize=26;horizontalStack=0;resizeParent=1;resizeLast=0;collapsible=1;marginBottom=0;rounded=0;shadow=0;strokeWidth=1;" parent="WIyWlLk6GJQsqaUBKTNV-1" vertex="1">
          <mxGeometry x="628" y="975" width="310" height="100" as="geometry">
            <mxRectangle x="550" y="140" width="160" height="26" as="alternateBounds" />
          </mxGeometry>
        </mxCell>
        <mxCell id="k-6Em8FCaYwR3AkW3c9V-55" value="" style="line;html=1;strokeWidth=1;align=left;verticalAlign=middle;spacingTop=-1;spacingLeft=3;spacingRight=3;rotatable=0;labelPosition=right;points=[];portConstraint=eastwest;" parent="k-6Em8FCaYwR3AkW3c9V-54" vertex="1">
          <mxGeometry y="26" width="310" height="8" as="geometry" />
        </mxCell>
        <mxCell id="k-6Em8FCaYwR3AkW3c9V-56" value="+ search(CharSequence pattern, CharSequence text) : List&lt;Integer&gt;&#xa;" style="text;align=left;verticalAlign=top;spacingLeft=4;spacingRight=4;overflow=hidden;rotatable=0;points=[[0,0.5],[1,0.5]];portConstraint=eastwest;whiteSpace=wrap;" parent="k-6Em8FCaYwR3AkW3c9V-54" vertex="1">
          <mxGeometry y="34" width="310" height="56" as="geometry" />
        </mxCell>
        <mxCell id="k-6Em8FCaYwR3AkW3c9V-57" value="DescendingNaiveSearchStrategy" style="swimlane;fontStyle=0;align=center;verticalAlign=top;childLayout=stackLayout;horizontal=1;startSize=26;horizontalStack=0;resizeParent=1;resizeLast=0;collapsible=1;marginBottom=0;rounded=0;shadow=0;strokeWidth=1;" parent="WIyWlLk6GJQsqaUBKTNV-1" vertex="1">
          <mxGeometry x="698" y="1056" width="310" height="100" as="geometry">
            <mxRectangle x="550" y="140" width="160" height="26" as="alternateBounds" />
          </mxGeometry>
        </mxCell>
        <mxCell id="k-6Em8FCaYwR3AkW3c9V-58" value="" style="line;html=1;strokeWidth=1;align=left;verticalAlign=middle;spacingTop=-1;spacingLeft=3;spacingRight=3;rotatable=0;labelPosition=right;points=[];portConstraint=eastwest;" parent="k-6Em8FCaYwR3AkW3c9V-57" vertex="1">
          <mxGeometry y="26" width="310" height="8" as="geometry" />
        </mxCell>
        <mxCell id="k-6Em8FCaYwR3AkW3c9V-59" value="+ search(CharSequence pattern, CharSequence text) : List&lt;Integer&gt;&#xa;" style="text;align=left;verticalAlign=top;spacingLeft=4;spacingRight=4;overflow=hidden;rotatable=0;points=[[0,0.5],[1,0.5]];portConstraint=eastwest;whiteSpace=wrap;" parent="k-6Em8FCaYwR3AkW3c9V-57" vertex="1">
          <mxGeometry y="34" width="310" height="56" as="geometry" />
        </mxCell>
        <mxCell id="k-6Em8FCaYwR3AkW3c9V-62" value="ReversedNaiveSearchStrategy" style="swimlane;fontStyle=0;align=center;verticalAlign=top;childLayout=stackLayout;horizontal=1;startSize=26;horizontalStack=0;resizeParent=1;resizeLast=0;collapsible=1;marginBottom=0;rounded=0;shadow=0;strokeWidth=1;" parent="WIyWlLk6GJQsqaUBKTNV-1" vertex="1">
          <mxGeometry x="1348" y="660" width="310" height="100" as="geometry">
            <mxRectangle x="550" y="140" width="160" height="26" as="alternateBounds" />
          </mxGeometry>
        </mxCell>
        <mxCell id="k-6Em8FCaYwR3AkW3c9V-63" value="" style="line;html=1;strokeWidth=1;align=left;verticalAlign=middle;spacingTop=-1;spacingLeft=3;spacingRight=3;rotatable=0;labelPosition=right;points=[];portConstraint=eastwest;" parent="k-6Em8FCaYwR3AkW3c9V-62" vertex="1">
          <mxGeometry y="26" width="310" height="8" as="geometry" />
        </mxCell>
        <mxCell id="k-6Em8FCaYwR3AkW3c9V-64" value="+ search(CharSequence pattern, CharSequence text) : List&lt;Integer&gt;&#xa;" style="text;align=left;verticalAlign=top;spacingLeft=4;spacingRight=4;overflow=hidden;rotatable=0;points=[[0,0.5],[1,0.5]];portConstraint=eastwest;whiteSpace=wrap;" parent="k-6Em8FCaYwR3AkW3c9V-62" vertex="1">
          <mxGeometry y="34" width="310" height="56" as="geometry" />
        </mxCell>
        <mxCell id="k-6Em8FCaYwR3AkW3c9V-65" value="ReversedKmpSearchStrategy" style="swimlane;fontStyle=0;align=center;verticalAlign=top;childLayout=stackLayout;horizontal=1;startSize=26;horizontalStack=0;resizeParent=1;resizeLast=0;collapsible=1;marginBottom=0;rounded=0;shadow=0;strokeWidth=1;" parent="WIyWlLk6GJQsqaUBKTNV-1" vertex="1">
          <mxGeometry x="1418" y="741" width="310" height="100" as="geometry">
            <mxRectangle x="550" y="140" width="160" height="26" as="alternateBounds" />
          </mxGeometry>
        </mxCell>
        <mxCell id="k-6Em8FCaYwR3AkW3c9V-66" value="" style="line;html=1;strokeWidth=1;align=left;verticalAlign=middle;spacingTop=-1;spacingLeft=3;spacingRight=3;rotatable=0;labelPosition=right;points=[];portConstraint=eastwest;" parent="k-6Em8FCaYwR3AkW3c9V-65" vertex="1">
          <mxGeometry y="26" width="310" height="8" as="geometry" />
        </mxCell>
        <mxCell id="k-6Em8FCaYwR3AkW3c9V-67" value="+ search(CharSequence pattern, CharSequence text) : List&lt;Integer&gt;&#xa;" style="text;align=left;verticalAlign=top;spacingLeft=4;spacingRight=4;overflow=hidden;rotatable=0;points=[[0,0.5],[1,0.5]];portConstraint=eastwest;whiteSpace=wrap;" parent="k-6Em8FCaYwR3AkW3c9V-65" vertex="1">
          <mxGeometry y="34" width="310" height="56" as="geometry" />
        </mxCell>
        <mxCell id="zkfFHV4jXpPFQw0GAbJ--0" value="StringSearchStrategyFactory" style="swimlane;fontStyle=2;align=center;verticalAlign=top;childLayout=stackLayout;horizontal=1;startSize=26;horizontalStack=0;resizeParent=1;resizeLast=0;collapsible=1;marginBottom=0;rounded=0;shadow=0;strokeWidth=1;" parent="WIyWlLk6GJQsqaUBKTNV-1" vertex="1">
          <mxGeometry x="938" y="20" width="300" height="90" as="geometry">
            <mxRectangle x="230" y="140" width="160" height="26" as="alternateBounds" />
          </mxGeometry>
        </mxCell>
        <mxCell id="zkfFHV4jXpPFQw0GAbJ--4" value="" style="line;html=1;strokeWidth=1;align=left;verticalAlign=middle;spacingTop=-1;spacingLeft=3;spacingRight=3;rotatable=0;labelPosition=right;points=[];portConstraint=eastwest;" parent="zkfFHV4jXpPFQw0GAbJ--0" vertex="1">
          <mxGeometry y="26" width="300" height="8" as="geometry" />
        </mxCell>
        <mxCell id="zkfFHV4jXpPFQw0GAbJ--5" value="+ create(int algorithmTypeId, int algorithmPropertyId) : IStringSearchStrategy" style="text;align=left;verticalAlign=top;spacingLeft=4;spacingRight=4;overflow=hidden;rotatable=0;points=[[0,0.5],[1,0.5]];portConstraint=eastwest;whiteSpace=wrap;" parent="zkfFHV4jXpPFQw0GAbJ--0" vertex="1">
          <mxGeometry y="34" width="300" height="56" as="geometry" />
        </mxCell>
        <mxCell id="fx7omjZI57ATHRoZKacw-1" value="«interface»&lt;br&gt;&lt;span style=&quot;font-style: italic&quot;&gt;&lt;b&gt;IStringSearchAlgorithm&lt;/b&gt;&lt;/span&gt;" style="html=1;" parent="WIyWlLk6GJQsqaUBKTNV-1" vertex="1">
          <mxGeometry x="100" y="-80" width="200" height="50" as="geometry" />
        </mxCell>
        <mxCell id="fx7omjZI57ATHRoZKacw-2" value="StringSearchAlgorithm" style="swimlane;fontStyle=2;align=center;verticalAlign=top;childLayout=stackLayout;horizontal=1;startSize=26;horizontalStack=0;resizeParent=1;resizeLast=0;collapsible=1;marginBottom=0;rounded=0;shadow=0;strokeWidth=1;" parent="WIyWlLk6GJQsqaUBKTNV-1" vertex="1">
          <mxGeometry x="50" y="20" width="300" height="114" as="geometry">
            <mxRectangle x="230" y="140" width="160" height="26" as="alternateBounds" />
          </mxGeometry>
        </mxCell>
        <mxCell id="fx7omjZI57ATHRoZKacw-10" value="- IStringSearchStrategy algStrategy" style="text;align=left;verticalAlign=top;spacingLeft=4;spacingRight=4;overflow=hidden;rotatable=0;points=[[0,0.5],[1,0.5]];portConstraint=eastwest;whiteSpace=wrap;" parent="fx7omjZI57ATHRoZKacw-2" vertex="1">
          <mxGeometry y="26" width="300" height="24" as="geometry" />
        </mxCell>
        <mxCell id="fx7omjZI57ATHRoZKacw-3" value="" style="line;html=1;strokeWidth=1;align=left;verticalAlign=middle;spacingTop=-1;spacingLeft=3;spacingRight=3;rotatable=0;labelPosition=right;points=[];portConstraint=eastwest;" parent="fx7omjZI57ATHRoZKacw-2" vertex="1">
          <mxGeometry y="50" width="300" height="8" as="geometry" />
        </mxCell>
        <mxCell id="fx7omjZI57ATHRoZKacw-4" value="+ create(int algorithmTypeId, int algorithmPropertyId) : IStringSearchAlgorithm" style="text;align=left;verticalAlign=top;spacingLeft=4;spacingRight=4;overflow=hidden;rotatable=0;points=[[0,0.5],[1,0.5]];portConstraint=eastwest;whiteSpace=wrap;" parent="fx7omjZI57ATHRoZKacw-2" vertex="1">
          <mxGeometry y="58" width="300" height="56" as="geometry" />
        </mxCell>
        <mxCell id="fx7omjZI57ATHRoZKacw-6" value="" style="endArrow=block;dashed=1;endFill=0;endSize=12;html=1;exitX=0.5;exitY=0;exitDx=0;exitDy=0;entryX=0.5;entryY=1;entryDx=0;entryDy=0;" parent="WIyWlLk6GJQsqaUBKTNV-1" source="fx7omjZI57ATHRoZKacw-2" target="fx7omjZI57ATHRoZKacw-1" edge="1">
          <mxGeometry width="160" relative="1" as="geometry">
            <mxPoint x="200" y="20" as="sourcePoint" />
            <mxPoint x="200" y="-30" as="targetPoint" />
          </mxGeometry>
        </mxCell>
        <mxCell id="fx7omjZI57ATHRoZKacw-7" value="has a" style="edgeStyle=orthogonalEdgeStyle;rounded=0;orthogonalLoop=1;jettySize=auto;html=1;entryX=0;entryY=0.5;entryDx=0;entryDy=0;endArrow=classic;endFill=1;" parent="WIyWlLk6GJQsqaUBKTNV-1" source="fx7omjZI57ATHRoZKacw-4" target="k-6Em8FCaYwR3AkW3c9V-1" edge="1">
          <mxGeometry relative="1" as="geometry" />
        </mxCell>
        <mxCell id="fx7omjZI57ATHRoZKacw-8" value="" style="endArrow=block;dashed=1;endFill=0;endSize=12;html=1;entryX=0.5;entryY=1;entryDx=0;entryDy=0;exitX=0.5;exitY=0;exitDx=0;exitDy=0;edgeStyle=orthogonalEdgeStyle;" parent="WIyWlLk6GJQsqaUBKTNV-1" source="k-6Em8FCaYwR3AkW3c9V-30" target="k-6Em8FCaYwR3AkW3c9V-1" edge="1">
          <mxGeometry width="160" relative="1" as="geometry">
            <mxPoint x="160" y="310" as="sourcePoint" />
            <mxPoint x="320" y="310" as="targetPoint" />
          </mxGeometry>
        </mxCell>
        <mxCell id="fx7omjZI57ATHRoZKacw-9" value="" style="endArrow=block;dashed=1;endFill=0;endSize=12;html=1;entryX=0.5;entryY=1;entryDx=0;entryDy=0;exitX=0.5;exitY=0;exitDx=0;exitDy=0;edgeStyle=orthogonalEdgeStyle;" parent="WIyWlLk6GJQsqaUBKTNV-1" source="k-6Em8FCaYwR3AkW3c9V-32" target="k-6Em8FCaYwR3AkW3c9V-1" edge="1">
          <mxGeometry width="160" relative="1" as="geometry">
            <mxPoint x="1020" y="300" as="sourcePoint" />
            <mxPoint x="685" y="180" as="targetPoint" />
            <Array as="points">
              <mxPoint x="1080" y="230" />
              <mxPoint x="675" y="230" />
            </Array>
          </mxGeometry>
        </mxCell>
      </root>
    </mxGraphModel>
  </diagram>
</mxfile>
